/* XPM */
static char *result[] = {
/* columns rows colors chars-per-pixel */
"64 64 209 2 ",
"   c #1F1624",
".  c #1E1724",
"X  c #201725",
"o  c #211725",
"O  c #201825",
"+  c #211826",
"@  c #221827",
"#  c #231829",
"$  c #231929",
"%  c #23182A",
"&  c #24192A",
"*  c #25192C",
"=  c #26182D",
"-  c #26182E",
";  c #27182F",
":  c #27192F",
">  c #271930",
",  c #281931",
"<  c #291A30",
"1  c #281A32",
"2  c #291B32",
"3  c #291B33",
"4  c #2A1A32",
"5  c #2A1B33",
"6  c #291E30",
"7  c #2C1F33",
"8  c #2B1B34",
"9  c #2A1C34",
"0  c #2A1D34",
"q  c #2C1D34",
"w  c #2C1C35",
"e  c #2D1C35",
"r  c #2D1D36",
"t  c #2C1C37",
"y  c #2D1C37",
"u  c #2D1E36",
"i  c #2F1B3A",
"p  c #2E1C38",
"a  c #2F1C39",
"s  c #2F1F38",
"d  c #2F1D3A",
"f  c #2F1C3B",
"g  c #301F39",
"h  c #301D3A",
"j  c #301C3B",
"k  c #301D3B",
"l  c #301E3B",
"z  c #301B3D",
"x  c #311B3D",
"c  c #301C3C",
"v  c #311D3C",
"b  c #321C3C",
"n  c #321C3E",
"m  c #2C2331",
"M  c #2D2033",
"N  c #30203A",
"B  c #31213A",
"V  c #31223B",
"C  c #32203C",
"Z  c #34223F",
"A  c #35243F",
"S  c #341B42",
"D  c #331C40",
"F  c #341C42",
"G  c #351E43",
"H  c #371F44",
"J  c #361E45",
"K  c #371E46",
"L  c #391E48",
"P  c #391F48",
"I  c #352140",
"U  c #362043",
"Y  c #372044",
"T  c #3A2247",
"R  c #3A2544",
"E  c #3A2545",
"W  c #3A2547",
"Q  c #3A214A",
"!  c #3B204B",
"~  c #3C2648",
"^  c #3C244B",
"/  c #3C204C",
"(  c #3E224D",
")  c #3E224F",
"_  c #3F224F",
"`  c #3E234F",
"'  c #3F254E",
"]  c #3F244F",
"[  c #3E284C",
"{  c #3F2250",
"}  c #41274E",
"|  c #402250",
" . c #402251",
".. c #402351",
"X. c #412352",
"o. c #412353",
"O. c #402450",
"+. c #422552",
"@. c #422453",
"#. c #422752",
"$. c #432454",
"%. c #432455",
"&. c #442555",
"*. c #442754",
"=. c #442556",
"-. c #452557",
";. c #412950",
":. c #412951",
">. c #422A50",
",. c #452953",
"<. c #442A52",
"1. c #452A53",
"2. c #432954",
"3. c #452B54",
"4. c #462A54",
"5. c #462A56",
"6. c #462A57",
"7. c #472C56",
"8. c #462658",
"9. c #462659",
"0. c #472659",
"q. c #47275A",
"w. c #48275B",
"e. c #462858",
"r. c #472A58",
"t. c #48285B",
"y. c #492D5A",
"u. c #4A2D5B",
"i. c #492F5A",
"p. c #4A2E5A",
"a. c #49285C",
"s. c #4A285D",
"d. c #4A2B5C",
"f. c #4B2A5D",
"g. c #4A285E",
"h. c #4B285E",
"j. c #4A295E",
"k. c #4B295E",
"l. c #4B295F",
"z. c #4C295F",
"x. c #4C2A5F",
"c. c #4D2B5F",
"v. c #4B2D5E",
"b. c #4D2F5D",
"n. c #4D2D5F",
"m. c #4D2F5E",
"M. c #483058",
"N. c #4A3058",
"B. c #4A3059",
"V. c #4A305A",
"C. c #4B305D",
"Z. c #4C305C",
"A. c #4E315E",
"S. c #4E325F",
"D. c #4C2960",
"F. c #4C2A60",
"G. c #4D2A60",
"H. c #4D2A61",
"J. c #4D2B61",
"K. c #4E2B61",
"L. c #4E2B62",
"P. c #4D2C60",
"I. c #4D2C61",
"U. c #4E2C61",
"Y. c #4E2D61",
"T. c #4F2D61",
"R. c #4D2F60",
"E. c #4E2E60",
"W. c #4E2E61",
"Q. c #4E2F61",
"!. c #4D2C62",
"~. c #4E2C62",
"^. c #4F2C62",
"/. c #4F2D62",
"(. c #4F2C63",
"). c #4F2E62",
"_. c #4F2F62",
"`. c #4F2E63",
"'. c #502E62",
"]. c #502E63",
"[. c #502F63",
"{. c #4F3062",
"}. c #4F3063",
"|. c #503060",
" X c #513261",
".X c #503062",
"XX c #503063",
"oX c #513063",
"OX c #503163",
"+X c #513163",
"@X c #513362",
"#X c #513263",
"$X c #523263",
"%X c #523363",
"&X c #523561",
"*X c #503462",
"=X c #523462",
"-X c #513064",
";X c #513164",
":X c #523164",
">X c #513264",
",X c #513265",
"<X c #523264",
"1X c #523364",
"2X c #533364",
"3X c #523564",
"4X c #533564",
"5X c #523466",
"6X c None",
/* pixels */
"6X6X6X6X6X6X6X6X6X6X6X6X6X6X6X6X6X6X6X6X6X6X6X6X6X6X6X6X6X6X6X6X6X6X6X6X6X6X6X6X6X6X6X6X6X6X6X6X6X6X6X6X6X6X6X6X6X6X6X6X6X6X6X6X",
"6X6X6X6X6X6X6X6X6X6X6X6X6X6X6X6X6X6X6X6X6X6X6X6X6X6X6X6X6X6X6X6X6X6X6X6X6X6X6X6X6X6X6X6X6X6X6X6X6X6X6X6X6X6X6X6X6X6X6X6X6X6X6X6X",
"6X6X6X6X6X6X6X6X6X6X6X6X6X6X6X6X6X6X6X6X6X6X6X6X6X6X6X6X6X6X6X6X6X6X6X6X6X6X6X6X6X6X6X6X6X6X6X6X6X6X6X6X6X6X6X6X6X6X6X6X6X6X6X6X",
"6X6X6X6X6X6X6X6X6X6X6X6X6X6X6X6X6X6X6X6X6X6X6X6X6X6X6X6X6X6X6XN.V.6X6X6X6X6X6X6X6X6X6X6X6X6X6X6X6X6X6X6X6X6X6X6X6X6X6X6X6X6X6X6X",
"6X6X6X6X6X6X6X6X6X6X6X6X6X6X6X6X6X6X6X6X6X6X6X6X[ ,.r.w.l.H.H.H.H.H.H.F.l.n.m.A.6X6X6X6X6X6X6X6X6X6X6X6X6X6X6X6X6X6X6X6X6X6X6X6X",
"6X6X6X6X6X6X6X6X6X6X6X6X6X6X6X6X6X6X6X6X6X6X#.0.F.H.L.L.L.L.L.L.L.L.L.L.L.L.L.H.F.E.6X6X6X6X6X6X6X6X6X6X6X6X6X6X6X6X6X6X6X6X6X6X",
"6X6X6X6X6X6X6X6X6X6X6X6X6X6X6X6X6X6X6XR +.l.H.L.L.L.L.L.L.L.L.L.L.L.L.L.L.L.L.L.L.L.H.P.+X6X6X6X6X6X6X6X6X6X6X6X6X6X6X6X6X6X6X6X",
"6X6X6X6X6X6X6X6X6X6X6X6X6X6X6X6X6XA O.l.J.L.L.L.L.L.L.L.L.L.L.L.L.L.L.L.L.L.L.L.L.L.L.L.H.J.*X6X6X6X6X6X6X6X6X6X6X6X6X6X6X6X6X6X",
"6X6X6X6X6X6X6X6X6X6X6X6X6X6X6X6XT a.H.L.L.L.L.L.L.L.L.L.L.L.L.L.L.L.L.L.L.L.L.L.L.L.L.L.L.L.H.Q.6X6X6X6X6X6X6X6X6X6X6X6X6X6X6X6X",
"6X6X6X6X6X6X6X6X6X6X6X6X6X6X6X] F.L.L.L.L.L.L.L.L.L.L.L.L.L.L.L.L.L.L.L.L.L.L.L.L.L.L.L.L.L.L.L.I.6X6X6X6X6X6X6X6X6X6X6X6X6X6X6X",
"6X6X6X6X6X6X6X6X6X6X6X6X6XV %.H.L.L.L.L.L.L.L.L.L.L.L.L.L.L.L.L.L.L.L.L.L.L.L.L.L.L.L.L.L.L.L.L.L.H.@X6X6X6X6X6X6X6X6X6X6X6X6X6X",
"6X6X6X6X6X6X6X6X6X6X6X6XN 8.H.L.L.L.L.L.L.L.L.L.L.L.L.L.L.L.L.L.L.L.L.L.L.L.L.L.L.L.L.L.L.L.L.L.L.L.H.+X6X6X6X6X6X6X6X6X6X6X6X6X",
"6X6X6X6X6X6X6X6X6X6X6Xs 9.H.L.L.L.L.L.L.L.L.L.L.L.L.L.L.L.L.L.L.L.L.L.L.L.L.L.L.L.L.L.L.L.L.L.L.L.L.L.H.#X6X6X6X6X6X6X6X6X6X6X6X",
"6X6X6X6X6X6X6X6X6X6X7 =.H.L.L.L.L.L.L.L.L.L.L.L.L.L.L.L.L.L.L.L.L.L.L.L.L.L.L.L.L.L.L.L.L.L.L.L.L.L.L.L.H.3X6X6X6X6X6X6X6X6X6X6X",
"6X6X6X6X6X6X6X6X6X6X{ H.L.L.L.L.L.L.L.L.L.L.L.L.L.L.L.L.L.L.L.L.L.L.L.L.L.L.L.L.L.L.L.L.L.L.L.L.L.L.L.L.L.H.6X6X6X6X6X6X6X6X6X6X",
"6X6X6X6X6X6X6X6X6XH H.L.L.L.L.L.L.L.L.L.L.L.L.L.L.L.L.L.L.L.L.L.L.L.L.L.L.L.L.L.L.L.L.L.L.L.L.L.L.L.L.L.L.L.~.6X6X6X6X6X6X6X6X6X",
"6X6X6X6X6X6X6X6Xr h.L.L.L.L.L.L.L.L.L.L.L.L.L.L.L.L.L.L.L.L.L.L.L.L.L.L.L.L.L.L.L.L.L.L.L.L.L.L.L.L.L.L.L.L.L.oX6X6X6X6X6X6X6X6X",
"6X6X6X6X6X6X6X6Xo.J.L.L.L.L.F.k.H.L.L.L.L.L.L.L.L.L.L.L.L.L.L.L.L.L.L.L.L.L.L.L.L.L.L.L.L.L.L.L.L.L.L.L.L.L.L.H.6X6X6X6X6X6X6X6X",
"6X6X6X6X6X6X6Xb G.L.L.L.L.Y.6Xq a.L.L.L.L.L.L.L.L.L.L.L.L.L.L.L.L.L.L.L.L.L.L.L.L.L.L.L.L.L.L.L.L.Y.q.H.L.L.L.L.).6X6X6X6X6X6X6X",
"6X6X6X6X6X6X$ -.L.L.L.L.Y.6X6XO w.L.L.L.L.L.L.L.L.L.L.L.L.L.L.L.L.L.L.L.L.L.L.L.L.L.L.L.L.L.L.L.L..X6XY g.L.L.L.J.4X6X6X6X6X6X6X",
"6X6X6X6X6X6Xf H.L.L.L.I.6X6X6X4 F.L.L.L.L.L.L.L.L.L.L.L.L.L.L.L.L.L.L.L.L.L.L.L.L.L.L.L.L.L.L.L.L.oX6X6Xk l.L.L.L.'.6X6X6X6X6X6X",
"6X6X6X6X6X6X..L.L.L.H.6X6X6X6XJ H.L.L.L.L.L.L.L.L.L.L.L.L.L.L.L.L.L.L.L.L.L.L.L.L.L.L.L.L.L.L.L.L.^.6X6X6XK H.L.L.J.6X6X6X6X6X6X",
"6X6X6X6X6X1 l.L.L.L.-X6X6X6X@ w.L.L.L.L.L.L.L.L.L.L.L.L.L.L.L.L.L.L.L.L.L.L.L.L.L.L.L.L.L.L.L.L.L.oX6X6X6X1 F.L.L.L.oX6X6X6X6X6X",
"6X6X6X6X6XD H.L.L.L.<X6X6X6X6X/ k.s.t.t.t.t.t.t.w.s.F.H.L.L.L.L.L.L.L.L.L.J.z.t.t.t.t.t.t.w.w.j.f.6X6X6X6X# k.L.L.L.K.6X6X6X6X6X",
"6X6X6X6X6XX.L.L.L.L.1X6X6X6X6X6X6X6X6X6X6X6X6X6X6X6XE ^ a.J.L.L.L.L.L.L.H.R.6X6X6X6X6X6X6X6X6X6X6X6X6X6X6X* l.L.L.L.L.6X6X6X6X6X",
"6X6X6X6X& s.L.L.L.L.,X6X6X6X6X6X6X6X6X6X6X6X6X6X6X6X6X6Xp l.L.L.L.L.L.U.6X6X6X6X6X6X6X6X6X6X6X6X6X6X6X6X6Xp H.L.L.L.L.>X6X6X6X6X",
"6X6X6X6X5 H.L.L.L.L.J.6X6X6X6X6X6X6X6X6X6X6X6X6X6X6X6X6X6X .L.L.L.L.H.6X6X6X6X6X6X6X6X6X6X6X6X6X6X6X6X6X6X{ J.L.L.L.L.oX6X6X6X6X",
"6X6X6X6Xv H.L.L.L.L.L.Y.6X6X6X6X6X6X6X6X6X6X6X6X6X6X6X6X6Xx H.L.L.L.}.6X6X6X6X6X6X6X6X6X6X6X6X6X6X6X6X6XQ F.L.L.L.L.L.(.6X6X6X6X",
"6X6X6X6XF L.L.L.L.L.L.L.I.=X6X6X6X6X6X6X6X6X6X6X6X6X6X6X6X< F.L.L.J.6X6X6X6X6X6X6X6X6X6X6X6X6X6X6X6X~ &.H.L.L.L.L.L.L.J.6X6X6X6X",
"6X6X6X6X! L.L.L.L.L.L.L.L.H.W.Z.B.B.B.B.B.B.6X6X6X6X6X6X6XX q.L.L./.6X6X6X6X6X6X6XM.B.B.B.B.7.5.6.w.G.L.L.L.L.L.L.L.L.L.6X6X6X6X",
"6X6X6X6X| L.L.L.L.L.L.L.L.L.L.L.L.L.L.L.L.L.-X6X6X6X6X6X6X6X! L.L.OX6X6X6X6X6X6Xy H.L.L.L.L.L.L.L.L.L.L.L.L.L.L.L.L.L.L.6X6X6X6X",
"6X6X6X6X@.L.L.L.L.L.L.L.L.L.L.L.L.L.L.L.L.L.;X6X6X6X6X6X6X6Xj H.J.6X6X6X6X6X6X6X2 H.L.L.L.L.L.L.L.L.L.L.L.L.L.L.L.L.L.L.6X6X6X6X",
"6X6X6X6X@.L.L.L.L.L.L.L.L.L.L.L.L.L.L.L.L.L.$X6X6X6X6X6X6X6X; F.`.6X6X6X6X6X6X6X- D.L.L.L.L.L.L.L.L.L.L.L.L.L.L.L.L.L.L.6X6X6X6X",
"6X6X6X6X| L.L.L.L.L.L.L.L.L.L.L.L.L.L.L.L.L.>X6X6X6X6X6X6X6X. 9.<X6X6X6X6X6X6X6X# k.L.L.L.L.L.L.L.L.L.L.L.L.L.L.L.L.L.L.6X6X6X6X",
"6X6X6X6X! L.L.L.L.L.L.L.L.L.L.L.L.L.L.L.L.L.:X6X6X6X6X6X6X6X6XP 6X6X6X6X6X6X6X6X  a.L.L.L.L.L.L.L.L.L.L.L.L.L.L.L.L.L.L.6X6X6X6X",
"6X6X6X6XF L.L.L.L.L.L.L.L.L.L.L.L.L.L.L.L.L.>X6X6X6X6X6X6X6X6XB 6X6X6X6X6X6X6X6X6X8.L.L.L.L.L.L.L.L.L.L.L.L.L.L.L.L.L.J.6X6X6X6X",
"6X6X6X6Xj H.L.L.L.L.L.L.L.L.L.L.L.L.L.L.L.L.:X6X6X6X6X6X6X6X6X6X6X6X6Xm 6X6X6X6X6X$.L.L.L.L.L.L.L.L.L.L.L.L.L.L.L.L.L.~.6X6X6X6X",
"6X6X6X6X3 H.L.L.L.L.L.L.L.L.L.L.L.L.L.L.L.L.$X6X6X6X6X6X6X6X6X6X6X6X6XC 6X6X6X6X6X_ L.L.L.L.L.L.L.L.L.L.L.L.L.L.L.L.L.oX6X6X6X6X",
"6X6X6X6X# s.L.L.L.L.L.L.L.L.L.L.L.L.L.L.L.L.<X6X6X6X6X% 6X6X6X6X6X6X6X2.6X6X6X6X6XL L.L.L.L.L.L.L.L.L.L.L.L.L.L.L.L.L.#X6X6X6X6X",
"6X6X6X6X6XX.L.L.L.L.L.L.L.L.L.L.L.L.L.L.L.L.2X6X6X6X6X: %X6X6X6X6X6X= Q.6X6X6X6X6XS L.L.L.L.L.L.L.L.L.L.L.L.L.L.L.L.L.6X6X6X6X6X",
"6X6X6X6X6Xn H.L.L.L.L.L.L.L.L.L.L.L.L.L.L.L.%X6X6X6X6Xw oX6X6X6X6X6Xh XX6X6X6X6X6Xz L.L.L.L.L.L.L.L.L.L.L.L.L.L.L.L.K.6X6X6X6X6X",
"6X6X6X6X6X> l.L.L.L.L.L.L.L.L.L.L.L.L.L.L.L.5X6X6X6X6Xd L.6X6X6X6X6XL -X6X6X6X6X6Xl H.L.L.L.L.L.L.L.L.L.L.L.L.L.L.L.XX6X6X6X6X6X",
"6X6X6X6X6X6X..L.L.L.L.L.L.L.L.L.L.L.L.L.L.L.6X6X6X6X6Xc J.6X6X6X6Xo 9.].6X6X6X6X6Xt H.L.L.L.L.L.L.L.L.L.L.L.L.L.L.J.6X6X6X6X6X6X",
"6X6X6X6X6X6Xa H.L.L.L.L.L.L.L.L.L.L.L.L.L.L.6X6X6X6X6XF L.#X6X6X6X, F.J.6X6X6X6X6X8 H.L.L.L.L.L.L.L.L.L.L.L.L.L.L.T.6X6X6X6X6X6X",
"6X6X6X6X6X6X+ -.L.L.L.L.L.L.L.L.L.L.L.L.L.L.6X6X6X6X6X! L.[.6X6X6XY H.H.6X6X6X6X6Xg H.L.L.L.L.L.L.L.L.L.L.L.L.L.J.=X6X6X6X6X6X6X",
"6X6X6X6X6X6X6Xi F.L.L.L.L.L.L.L.L.L.L.L.L.L.|.y.i.i.<.q.L.J.F.x.x.F.L.L.6X6X:.4.e.g.H.L.L.L.L.L.L.L.L.L.L.L.L.L.T.6X6X6X6X6X6X6X",
"6X6X6X6X6X6X6X6Xo.J.L.L.L.L.L.L.L.L.L.L.L.L.L.L.L.L.L.L.L.L.L.L.L.L.L.L.z.l.H.L.L.L.L.L.L.L.L.L.L.L.L.L.L.L.L.H.6X6X6X6X6X6X6X6X",
"6X6X6X6X6X6X6X6X9 h.L.L.L.L.L.L.L.L.L.L.L.L.L.L.L.L.L.L.L.L.L.L.L.L.L.L.L.L.L.L.L.L.L.L.L.L.L.L.L.L.L.L.L.L.L._.6X6X6X6X6X6X6X6X",
"6X6X6X6X6X6X6X6X6XG H.L.L.L.L.L.L.L.L.L.L.L.L.L.L.L.L.L.L.L.L.L.L.L.L.L.L.L.L.L.L.L.L.L.L.L.L.L.L.L.L.L.L.L.!.6X6X6X6X6X6X6X6X6X",
"6X6X6X6X6X6X6X6X6X6X) H.L.L.L.L.L.L.L.L.L.L.L.L.L.L.L.L.L.L.L.L.L.L.L.L.L.L.L.L.L.L.L.L.L.L.L.L.L.L.L.L.L.H.6X6X6X6X6X6X6X6X6X6X",
"6X6X6X6X6X6X6X6X6X6X6 =.H.L.L.L.L.L.L.L.L.L.L.L.L.L.L.L.L.L.L.L.L.L.L.L.L.L.L.L.L.L.L.L.L.L.L.L.L.L.L.L.H.@X6X6X6X6X6X6X6X6X6X6X",
"6X6X6X6X6X6X6X6X6X6X6X0 9.H.L.L.L.L.L.L.L.L.L.L.L.L.L.L.L.L.L.L.L.L.L.L.L.L.L.L.L.L.L.L.L.L.L.L.L.L.L.H.OX6X6X6X6X6X6X6X6X6X6X6X",
"6X6X6X6X6X6X6X6X6X6X6X6Xe 8.H.L.L.L.L.L.L.L.L.L.L.L.L.L.L.L.L.L.L.L.L.L.L.L.L.L.L.L.L.L.L.L.L.L.L.L.H.{.6X6X6X6X6X6X6X6X6X6X6X6X",
"6X6X6X6X6X6X6X6X6X6X6X6X6Xu $.H.L.L.L.L.L.L.L.L.L.L.L.L.L.L.L.L.L.L.L.L.L.L.L.L.L.L.L.L.L.L.L.L.L.H. X6X6X6X6X6X6X6X6X6X6X6X6X6X",
"6X6X6X6X6X6X6X6X6X6X6X6X6X6XM ( F.L.L.L.L.L.L.L.L.L.L.L.L.L.L.L.L.L.L.L.L.L.L.L.L.L.L.L.L.L.L.L.K.&X6X6X6X6X6X6X6X6X6X6X6X6X6X6X",
"6X6X6X6X6X6X6X6X6X6X6X6X6X6X6X6XU a.H.L.L.L.L.L.L.L.L.L.L.L.L.L.L.L.L.L.L.L.L.L.L.L.L.L.L.L.H.n.6X6X6X6X6X6X6X6X6X6X6X6X6X6X6X6X",
"6X6X6X6X6X6X6X6X6X6X6X6X6X6X6X6X6Xs ` l.J.L.L.L.L.L.L.L.L.L.L.L.L.L.L.L.L.L.L.L.L.L.L.L.H.c.S.6X6X6X6X6X6X6X6X6X6X6X6X6X6X6X6X6X",
"6X6X6X6X6X6X6X6X6X6X6X6X6X6X6X6X6X6X6XI O.l.H.L.L.L.L.L.L.L.L.L.L.L.L.L.L.L.L.L.L.L.H.F.b.6X6X6X6X6X6X6X6X6X6X6X6X6X6X6X6X6X6X6X",
"6X6X6X6X6X6X6X6X6X6X6X6X6X6X6X6X6X6X6X6X6XZ ' 9.F.H.L.L.L.L.L.L.L.L.L.L.L.L.L.H.F.v.C.6X6X6X6X6X6X6X6X6X6X6X6X6X6X6X6X6X6X6X6X6X",
"6X6X6X6X6X6X6X6X6X6X6X6X6X6X6X6X6X6X6X6X6X6X6X6XW } *.q.l.H.H.H.H.H.H.F.l.d.u.p.6X6X6X6X6X6X6X6X6X6X6X6X6X6X6X6X6X6X6X6X6X6X6X6X",
"6X6X6X6X6X6X6X6X6X6X6X6X6X6X6X6X6X6X6X6X6X6X6X6X6X6X6X6X6X6X;.>.1.3.6X6X6X6X6X6X6X6X6X6X6X6X6X6X6X6X6X6X6X6X6X6X6X6X6X6X6X6X6X6X",
"6X6X6X6X6X6X6X6X6X6X6X6X6X6X6X6X6X6X6X6X6X6X6X6X6X6X6X6X6X6X6X6X6X6X6X6X6X6X6X6X6X6X6X6X6X6X6X6X6X6X6X6X6X6X6X6X6X6X6X6X6X6X6X6X",
"6X6X6X6X6X6X6X6X6X6X6X6X6X6X6X6X6X6X6X6X6X6X6X6X6X6X6X6X6X6X6X6X6X6X6X6X6X6X6X6X6X6X6X6X6X6X6X6X6X6X6X6X6X6X6X6X6X6X6X6X6X6X6X6X",
"6X6X6X6X6X6X6X6X6X6X6X6X6X6X6X6X6X6X6X6X6X6X6X6X6X6X6X6X6X6X6X6X6X6X6X6X6X6X6X6X6X6X6X6X6X6X6X6X6X6X6X6X6X6X6X6X6X6X6X6X6X6X6X6X"
};
