/* XPM */
static char *result[] = {
/* columns rows colors chars-per-pixel */
"16 16 47 1 ",
"  c #3F234E",
". c #3F234F",
"X c #402451",
"o c #412650",
"O c #402452",
"+ c #422452",
"@ c #432555",
"# c #442655",
"$ c #452755",
"% c #442656",
"& c #452756",
"* c #462758",
"= c #48275A",
"- c #472858",
"; c #49295B",
": c #49285C",
"> c #4A285D",
", c #492A5C",
"< c #4A2A5C",
"1 c #4A2A5D",
"2 c #4A295E",
"3 c #4B295E",
"4 c #4C295F",
"5 c #4C2A5E",
"6 c #4C2B5E",
"7 c #4C2A5F",
"8 c #4C2B5F",
"9 c #4E2B5F",
"0 c #4C2960",
"q c #4C2A60",
"w c #4D2A60",
"e c #4C2B60",
"r c #4D2B60",
"t c #4D2A61",
"y c #4D2B61",
"u c #4E2A61",
"i c #4E2B61",
"p c #4E2A62",
"a c #4E2B62",
"s c #4D2C61",
"d c #4E2C60",
"f c #4E2C61",
"g c #4F2D61",
"h c #4E2C62",
"j c #4F2C62",
"k c #4E2D62",
"l c None",
/* pixels */
"llllllllllllllll",
"lllll=7ttywlllll",
"llll4aaaaaaullll",
"llltaaaaaaaatlll",
"ll2;waaaaaaa5tll",
"lOil0qwaatqql@hl",
"l&sllll*sllll%hl",
"l:aa8ll.ll$6<tyl",
"l:aaajllll&aaayl",
"l&aaakllll#aaafl",
"lXaaajllol+aaagl",
"ll>aay,y712aapll",
"llltaaaaaaaatdll",
"lll 4aaaaaap9lll",
"lllll-3tterlllll",
"llllllllllllllll"
};
