/* XPM */
static char *result[] = {
/* columns rows colors chars-per-pixel */
"32 32 80 1 ",
"  c #301D39",
". c #321C3D",
"X c #311F3C",
"o c #331E3E",
"O c #341D3F",
"+ c #351E40",
"@ c #361E42",
"# c #371F43",
"$ c #342041",
"% c #362043",
"& c #362143",
"* c #382145",
"= c #392146",
"- c #3A2047",
"; c #392347",
": c #392446",
"> c #3A2148",
", c #3B2249",
"< c #3D224C",
"1 c #3D224D",
"2 c #3E224D",
"3 c #3E234D",
"4 c #3E244F",
"5 c #3F244F",
"6 c #402450",
"7 c #402650",
"8 c #422751",
"9 c #412552",
"0 c #422552",
"q c #422453",
"w c #422553",
"e c #422454",
"r c #422554",
"t c #442754",
"y c #452755",
"u c #442656",
"i c #462957",
"p c #462759",
"a c #472759",
"s c #482759",
"d c #462858",
"f c #49295A",
"g c #49285C",
"h c #4A285D",
"j c #4B295D",
"k c #4A285E",
"l c #4B295E",
"z c #4B295F",
"x c #4B2A5F",
"c c #4C295F",
"v c #4C2A5F",
"b c #4B2C5D",
"n c #4B2C5E",
"m c #4C2C5E",
"M c #4D2C5F",
"N c #4C2A60",
"B c #4D2A60",
"V c #4D2A61",
"C c #4D2B61",
"Z c #4E2A61",
"A c #4E2B61",
"S c #4E2B62",
"D c #4D2C60",
"F c #4D2C61",
"G c #4D2D61",
"H c #4E2C60",
"J c #4E2C61",
"K c #4F2C61",
"L c #4E2D61",
"P c #4E2E60",
"I c #4E2E61",
"U c #4F2E61",
"Y c #4E2C62",
"T c #4F2C62",
"R c #4E2D62",
"E c #4F2D62",
"W c #4F2E62",
"Q c #4F2F62",
"! c #502E62",
"~ c None",
/* pixels */
"~~~~~~~~~~~~~~~~~~~~~~~~~~~~~~~~",
"~~~~~~~~~~~~~~~~~~~~~~~~~~~~~~~~",
"~~~~~~~~~~~tfjVVVVBMD~~~~~~~~~~~",
"~~~~~~~~~0hVSSSSSSSSSZH~~~~~~~~~",
"~~~~~~~~sVSSSSSSSSSSSSSY~~~~~~~~",
"~~~~~~;kSSSSSSSSSSSSSSSSVI~~~~~~",
"~~~~~&zSSSSSSSSSSSSSSSSSSVQ~~~~~",
"~~~~~gSSSSSSSSSSSSSSSSSSSSV~~~~~",
"~~~~wSSNVSSSSSSSSSSSSSSSSSSC~~~~",
"~~~@VSJ~lSSSSSSSSSSSSSSSK0VSU~~~",
"~~~rSJ~~VSSSSSSSSSSSSSSST~-VF~~~",
"~~~VS~~#clllzVSSSSCclllzG~~NS~~~",
"~~=SS~~~~~~~~~uSSCL~~~~~~~~VS!~~",
"~~2SSR~~~~~~~~OVSW~~~~~~~~4CSE~~",
"~~eSSSA~~~~~~~~zC~~~~~~~iaVSSC~~",
"~~aSSSSSSSS~~~~qR~~~<SSSSSSSSS~~",
"~~aSSSSSSSS~~~~>~~~~,SSSSSSSSS~~",
"~~eSSSSSSSS~~~~X~~~~=SSSSSSSSC~~",
"~~1SSSSSSSS~~~~~~~~~%SSSSSSSSY~~",
"~~*SSSSSSSS~~~~~~:~~oSSSSSSSSE~~",
"~~~VSSSSSSS~~~~~~8~~ VSSSSSSS~~~",
"~~~wSSSSSSS~~.W~~x~~~VSSSSSSJ~~~",
"~~~+VSSSSSS~~3JmyV~~6VSSSSSSI~~~",
"~~~~9SSSSSSSSSSSSSNVSSSSSSSY~~~~",
"~~~~~gSSSSSSSSSSSSSSSSSSSSV~~~~~",
"~~~~~$zSSSSSSSSSSSSSSSSSSVU~~~~~",
"~~~~~~&kSSSSSSSSSSSSSSSSVP~~~~~~",
"~~~~~~~~pVSSSSSSSSSSSSSC~~~~~~~~",
"~~~~~~~~~5gVSSSSSSSSSBM~~~~~~~~~",
"~~~~~~~~~~~7dhVVVVvnb~~~~~~~~~~~",
"~~~~~~~~~~~~~~~~~~~~~~~~~~~~~~~~",
"~~~~~~~~~~~~~~~~~~~~~~~~~~~~~~~~"
};
