/* XPM */
static char *result[] = {
/* columns rows colors chars-per-pixel */
"128 128 62 1 ",
"  c #1E191F",
". c #1D0F24",
"X c #1E1324",
"o c #1E1A21",
"O c #201626",
"+ c #211B24",
"@ c #22132B",
"# c #251B2A",
"$ c #281E2E",
"% c #261431",
"& c #291634",
"* c #2B1D34",
"= c #2C1738",
"- c #2E193A",
"; c #311B3D",
": c #242125",
"> c #262129",
", c #29252C",
"< c #2D2333",
"1 c #2E2830",
"2 c #2F2038",
"3 c #312735",
"4 c #312A35",
"5 c #33243C",
"6 c #34293C",
"7 c #382C3F",
"8 c #351C43",
"9 c #381E47",
"0 c #391F49",
"q c #362341",
"w c #3A2247",
"e c #3B2B45",
"r c #3C214C",
"t c #3E2A4A",
"y c #3D3045",
"u c #3F2250",
"i c #412C4D",
"p c #43324D",
"a c #432454",
"s c #442B53",
"d c #482F55",
"f c #462659",
"g c #48275B",
"h c #4B2A5D",
"j c #463052",
"k c #493455",
"l c #4D3D56",
"z c #4C325B",
"x c #50365F",
"c c #513A5D",
"v c #4E2B62",
"b c #502F63",
"n c #4F3261",
"m c #533464",
"M c #553A65",
"N c #583C67",
"B c #573A68",
"V c #593D68",
"C c #5A4267",
"Z c #594068",
"A c #5D486B",
"S c None",
/* pixels */
"SSSSSSSSSSSSSSSSSSSSSSSSSSSSSSSSSSSSSSSSSSSSSSSSSSSSSSSSSSSSSSSSSSSSSSSSSSSSSSSSSSSSSSSSSSSSSSSSSSSSSSSSSSSSSSSSSSSSSSSSSSSSSSSS",
"SSSSSSSSSSSSSSSSSSSSSSSSSSSSSSSSSSSSSSSSSSSSSSSSSSSSSSSSSSSSSSSSSSSSSSSSSSSSSSSSSSSSSSSSSSSSSSSSSSSSSSSSSSSSSSSSSSSSSSSSSSSSSSSS",
"SSSSSSSSSSSSSSSSSSSSSSSSSSSSSSSSSSSSSSSSSSSSSSSSSSSSSSSSSSSSSSSSSSSSSSSSSSSSSSSSSSSSSSSSSSSSSSSSSSSSSSSSSSSSSSSSSSSSSSSSSSSSSSSS",
"SSSSSSSSSSSSSSSSSSSSSSSSSSSSSSSSSSSSSSSSSSSSSSSSSSSSSSSSSSSSSSSSSSSSSSSSSSSSSSSSSSSSSSSSSSSSSSSSSSSSSSSSSSSSSSSSSSSSSSSSSSSSSSSS",
"SSSSSSSSSSSSSSSSSSSSSSSSSSSSSSSSSSSSSSSSSSSSSSSSSSSSSSSSSSSSSSSSSSSSSSSSSSSSSSSSSSSSSSSSSSSSSSSSSSSSSSSSSSSSSSSSSSSSSSSSSSSSSSSS",
"SSSSSSSSSSSSSSSSSSSSSSSSSSSSSSSSSSSSSSSSSSSSSSSSSSSSSSSSSSSSSSSSSSSSSSSSSSSSSSSSSSSSSSSSSSSSSSSSSSSSSSSSSSSSSSSSSSSSSSSSSSSSSSSS",
"SSSSSSSSSSSSSSSSSSSSSSSSSSSSSSSSSSSSSSSSSSSSSSSSSSSSSSSSSSSSSSSSSSSSSSSSSSSSSSSSSSSSSSSSSSSSSSSSSSSSSSSSSSSSSSSSSSSSSSSSSSSSSSSS",
"SSSSSSSSSSSSSSSSSSSSSSSSSSSSSSSSSSSSSSSSSSSSSSSSSSSSSSSSpsdjjzhhzzzzzkzcSSSSSSSSSSSSSSSSSSSSSSSSSSSSSSSSSSSSSSSSSSSSSSSSSSSSSSSS",
"SSSSSSSSSSSSSSSSSSSSSSSSSSSSSSSSSSSSSSSSSSSSSSSSSSSpiaafghvhvvvvvvgvvvvvgghzcSSSSSSSSSSSSSSSSSSSSSSSSSSSSSSSSSSSSSSSSSSSSSSSSSSS",
"SSSSSSSSSSSSSSSSSSSSSSSSSSSSSSSSSSSSSSSSSSSSSSSetragvvhvvvvvvvvvvvvvvvvvvvvvvghmzSSSSSSSSSSSSSSSSSSSSSSSSSSSSSSSSSSSSSSSSSSSSSSS",
"SSSSSSSSSSSSSSSSSSSSSSSSSSSSSSSSSSSSSSSSSSSSetrfgvvvvvvvvvvvvvvvvvvvvvvvvvvvvvvhvgzmSSSSSSSSSSSSSSSSSSSSSSSSSSSSSSSSSSSSSSSSSSSS",
"SSSSSSSSSSSSSSSSSSSSSSSSSSSSSSSSSSSSSSSSSSewavvvbvvvvbvvvvvvvvvvvvvvvvvvvvvvvvvvvvvvvmSSSSSSSSSSSSSSSSSSSSSSSSSSSSSSSSSSSSSSSSSS",
"SSSSSSSSSSSSSSSSSSSSSSSSSSSSSSSSSSSSSSSSe0fvvvvvvvvvvvvvvvvvvvvvvvvvvvvvvvvvvvvvvvvvvvhnSSSSSSSSSSSSSSSSSSSSSSSSSSSSSSSSSSSSSSSS",
"SSSSSSSSSSSSSSSSSSSSSSSSSSSSSSSSSSSSSSq0hvvvvvvvvvvvvvvvvvvvvvvvvvvvvvvvvvvvvvvvvvvvvvvvvmSSSSSSSSSSSSSSSSSSSSSSSSSSSSSSSSSSSSSS",
"SSSSSSSSSSSSSSSSSSSSSSSSSSSSSSSSSSSS5wfvvvvvvvvvvvvvvvvvvvvvvvvvvvvvvvvvvvbvvvvvvvvvvvvvvvvmSSSSSSSSSSSSSSSSSSSSSSSSSSSSSSSSSSSS",
"SSSSSSSSSSSSSSSSSSSSSSSSSSSSSSSSSS69fvvvvvvvvvvvvvvvvvvvvvvvvvvvvvvvvvvvvvvvvvvvvvvvvvvvvvvvvVSSSSSSSSSSSSSSSSSSSSSSSSSSSSSSSSSS",
"SSSSSSSSSSSSSSSSSSSSSSSSSSSSSSSSS8uvvvvvvvvvvvvvvvvbvvbvvvvvvvvvvvvvvvvvvvvvvvvvvvvvvvvvvvvvvvbSSSSSSSSSSSSSSSSSSSSSSSSSSSSSSSSS",
"SSSSSSSSSSSSSSSSSSSSSSSSSSSSSSS60gvvvvvvvvvvvvvvvvvvvvvvvvvvvvvvvvvvvvvvvvvvvvvvvvvvvvvvvvvvvvvvMSSSSSSSSSSSSSSSSSSSSSSSSSSSSSSS",
"SSSSSSSSSSSSSSSSSSSSSSSSSSSSSS2rvvvvvvvvvvvvvvvvvvvvvvvvvvvvvvvvvvvvvvvvvvvvvvvvvvvvvvvvvvvvvvvvvmSSSSSSSSSSSSSSSSSSSSSSSSSSSSSS",
"SSSSSSSSSSSSSSSSSSSSSSSSSSSSS;avvvvvvvvvvvvvvvvvvvvvvvvvvvvvvvvvvvvvvvvvvvvvvvvvvvvvvvvvvvvvvvvvvhvZSSSSSSSSSSSSSSSSSSSSSSSSSSSS",
"SSSSSSSSSSSSSSSSSSSSSSSSSSS<;fvvvvvvvvvvvvvvvvvvvvvvvvvvvvvvvvvvvvvvvvvvvvvvvvvvvvvvvvvvvvvvvvvvvvvhNSSSSSSSSSSSSSSSSSSSSSSSSSSS",
"SSSSSSSSSSSSSSSSSSSSSSSSSS<9gvvvvvvvvvvvvvvvvvvvvvvvvvvvvvvvvvvvvvvvvvvvvvvvvvvvvvvvvvvvvvvvvvvvvvvvgMSSSSSSSSSSSSSSSSSSSSSSSSSS",
"SSSSSSSSSSSSSSSSSSSSSSSSS<9gvvvvvvvvvvbvvvvvvvvvvvvvvbvvvvvvvvvvvvvvbvvvvvvvvvvvvvvvvvvvvvvvvvvvvvvvvvmSSSSSSSSSSSSSSSSSSSSSSSSS",
"SSSSSSSSSSSSSSSSSSSSSSSS*rgvvvvvvvvvvvvvvvvvvvvvvvvvvvvvvvvvvvvvvvvvvvvvvvvvvvvvvvvvvvvvvvvvvvvvvvvvvvvmSSSSSSSSSSSSSSSSSSSSSSSS",
"SSSSSSSSSSSSSSSSSSSSSSS*wgvvvvvvvvvvvvvvvvvvvvvvvvvvvvvvvvbvvvvvvvvvvvvvvvvvvvvbvvvvvvvvvvvvvvvvvvvvvvvvmSSSSSSSSSSSSSSSSSSSSSSS",
"SSSSSSSSSSSSSSSSSSSSSS,9gvvvvvvvvvvvvvvvvvvvvvvvvvvvvvvvvvvvvvvvvvvvvvbvvvvvvvvvvvvvvvvvvvvvvvvvvvvvvvvvhmSSSSSSSSSSSSSSSSSSSSSS",
"SSSSSSSSSSSSSSSSSSSSS<8gvvvvvvvvvvvvvvvvvvvvvvvvvvvvvvvvvvvvvvvvvvvvvvvvvvvvvvvvvvvvvvvvvvvvvvvvvvvvvvvvvvMSSSSSSSSSSSSSSSSSSSSS",
"SSSSSSSSSSSSSSSSSSSS<-fvvvvvvvvvvvvvvvvvvvvvvvvvvvvvvvvvvvvvvvvvvvvvvvvvvvvvvvvvvvvvvvvvvvvvvvvvvvvvvvvvvvvNSSSSSSSSSSSSSSSSSSSS",
"SSSSSSSSSSSSSSSSSSSS&fvvvvvvvvvvvbvvvvvvvvvvvvvvvvvvvvvvvvvvvvvvvvvvvvvvvvvvvvvvvvvvvvvvvvvvvvvvvvvvvvvvvvvvSSSSSSSSSSSSSSSSSSSS",
"SSSSSSSSSSSSSSSSSSS#avvvvvvvvvvvvvvvvvvvvvvvvvvvvvvvvvvvvvvvvvvvvvvvvvvvvvvvvvvvvvvvvvvvvvvvvvvbvvvbvvvvvvvvmSSSSSSSSSSSSSSSSSSS",
"SSSSSSSSSSSSSSSSSS$wvvvvvvvvvvvvvvvvvvvvvvvvvvvvvvvvvvvvvvvvvvvvvvvvvvvvvvvvvvvvvvvvvvvvvvvvvvvvvvvvvvvvvvvvvmSSSSSSSSSSSSSSSSSS",
"SSSSSSSSSSSSSSSSS<-hvvvvvvvvvvvvvvvvvvvvvvvvbvvvvvvvvvvvvvvvvvvvvbvvvvvvvvvvvvvvbvvvvvvvvvvvvvvvvvvvvvvvvvvvvvNSSSSSSSSSSSSSSSSS",
"SSSSSSSSSSSSSSSSS%fvvvvvvvvvvvvvvvvvvvvvvvvvvvvvvvvvvvvvvvvvvvvvvvvvvvvvvvvvvvvvvvvvvvvvvvvvvvvvvvvvvvvvvvvvvvvSSSSSSSSSSSSSSSSS",
"SSSSSSSSSSSSSSSS#0vvvvvvvvvvvvvvvvvvvvvvvvvvvvvvvvvvvvvvvvvvvvvvvvvvvvvvvvvvvvvvvvvvvvvvvvvvvvvvvvvvvvvvvvvvvvvnSSSSSSSSSSSSSSSS",
"SSSSSSSSSSSSSSS,=hvvvvvvvvvvvvvvvvvvvvvvvvvvvvvvvvvvbvvvvvvvvvvvvvvvvvvvvvvvvvvvbvvvvvvvvvvvvbvvvvvvvvvvvvvvvvvvVSSSSSSSSSSSSSSS",
"SSSSSSSSSSSSSSS@avvvvvvvvvvvvgggvvvvvvvvvvvvvvvvvvvvvvvvvvvvvvvvvvvvvvvvvvvvvvvvvvvvvvvvvvvvvvvvvvvvvvbvvvvvvvvvvSSSSSSSSSSSSSSS",
"SSSSSSSSSSSSSS>8hvvvvvvvvvvvnSy-gvvvvvvvvvvvvvvvvvvvvvvvvvvvvvvvvvbvvvvvvvvvvvvvvvvvvvvvvvvvvvvvvvvvvvvvvvvvvvvvvMSSSSSSSSSSSSSS",
"SSSSSSSSSSSSSS@fvvvvvvvvvvvVSSS#avvvvvvvvvvvvvvvvvvvvvvvvvvvvvvvvvvvvvbvvvvvvvvvvvvvvvvvvvvvvvvvvvvmaavvvvvvvvvvvvSSSSSSSSSSSSSS",
"SSSSSSSSSSSSS:9gvvvvvvvvvgZSSSS+avvvvvvvvvvvvvvvvvvvvvvvvvvbvvvvvvvvvvvvvvvvvvvvvvvvvvvvvvvvvvvvvvvMS38fvvvvvvvvvvMSSSSSSSSSSSSS",
"SSSSSSSSSSSSS@fvvvvvvvvvvMSSSSSXavvvvvvvvvvvvbvvvvvvvvvvvvvvvvvvvvvvvvvvvvvvvvvvvvvvvbvvvvvvvvvvvvvMSS2=fvvvvvvvvvvSSSSSSSSSSSSS",
"SSSSSSSSSSSS+9gvvvvvvvvvMSSSSSS%gvvvvvvvvvvvvbvvvvvvvvvvvvvvvvvvvvvvvvvvvvvvvvvvvvvvvvvvvvvvvvvvvvvMSSSS&avvvvvvvvvMSSSSSSSSSSSS",
"SSSSSSSSSSSS@avvvvvvvvvmSSSSSS+9vvvvvvvvvvvvvvvvvvvvvvvvvvvvvvvvvvvvvvvvvvvvvvvvvvvvvvvvvvvvvvvvvvvmSSSS1%avvvvvvvvvSSSSSSSSSSSS",
"SSSSSSSSSSS>-gvvvvvvvvbSSSSSSSXfvvvvvvvvvvvvvvvvvvvvvvvvvvvvvvvvvvvvvvvvvvvvvvvvvvvvvvvvvvvvvvvvvvvbSSSSS#;gvvvvvvvvNSSSSSSSSSSS",
"SSSSSSSSSSS+uvvvvvvvvvSSSSSSS>=hvvvvvvvvvvvvvvvvvvvvvvvvvvvvvvvvvvvvvvvvvvvvvvvvvvvvvvvvvvvvbvvvvvvbSSSSSS@avvvvvvvvmSSSSSSSSSSS",
"SSSSSSSSSSS@gvvvvvvvvmSSSSSSS+avvvvvvvvvvvvvvvvvvvvvvvvvvvvvvvvvvvvvvvvvvvvvvvvvvvvvvvvvvvvvvvvvvvvMSSSSSSo8vvvvvvvvvSSSSSSSSSSS",
"SSSSSSSSSSo8vvvvvvvvvMSSSSSSS.fvvvvvvvvvvvvvvvvvvvvvvvvvvvvvvvvvvvvvvvvvvvvvbvvvvvvvvvvvvvvvvvvvvvvMSSSSSSS%hvvvvvvvvmSSSSSSSSSS",
"SSSSSSSSSSoavvvvvvvvvZSSSSSSSoagvvvvvvvvvvvvvvvvvvvvvvvvvvvvvvvvvvvvvvvvvvvvvvvvvvvvvvvvvvvvvvvvvvvSSSSSSSSXfvvvvvvvvmSSSSSSSSSS",
"SSSSSSSSSS@fvvvvvvvvvSSSSSSSS,#afgfffaaafaaaaaafaafggvvvvvvvvvvvvvvvvvvvvvvvvhaaaaaaafafaaaaaafhfhSSSSSSSSSXfvvvvvvvvvSSSSSSSSSS",
"SSSSSSSSS+8gvvvvvvvvvSSSSSSSSSSSSSSSSSSSSSSSSSSSSSeetwagvvvvvvvvvvvvvvvvvvvgcSSSSSSSSSSSSSSSSSSSSSSSSSSSSSS.hvvvvvvvvvBSSSSSSSSS",
"SSSSSSSSS+rvvvvvvvvvvSSSSSSSSSSSSSSSSSSSSSSSSSSSSSSSSS6;uvvvvvvvvvvvvvvvvvmSSSSSSSSSSSSSSSSSSSSSSSSSSSSSSSS#hvvvvvvvvvmSSSSSSSSS",
"SSSSSSSSSXavvvvvvvvvvSSSSSSSSSSSSSSSSSSSSSSSSSSSSSSSSSSS#avvvvvvvvvvvvvvvSSSSSSSSSSSSSSSSSSSSSSSSSSSSSSSSS+8vvvvvvvvvvvSSSSSSSSS",
"SSSSSSSSS@hvvvvvvvvvvBSSSSSSSSSSSSSSSSSSSSSSSSSSSSSSSSSS,%fvvvvvvvvvvvvmSSSSSSSSSSSSSSSSSSSSSSSSSSSSSSSSSS@0vvvvvvvvvvvSSSSSSSSS",
"SSSSSSSSo-vvvvvvvvvvvvSSSSSSSSSSSSSSSSSSSSSSSSSSSSSSSSSSS+rvvvvvvvvvvvvSSSSSSSSSSSSSSSSSSSSSSSSSSSSSSSSSSS&hvvvvvvvvvvvBSSSSSSSS",
"SSSSSSSSo9vvvvvvvvvvvvMSSSSSSSSSSSSSSSSSSSSSSSSSSSSSSSSSS+-gvvvvvvvvvvVSSSSSSSSSSSSSSSSSSSSSSSSSSSSSSSSSS#uvvvvvvvvvvvvmSSSSSSSS",
"SSSSSSSS+avvvvvvvvvvvvvMSSSSSSSSSSSSSSSSSSSSSSSSSSSSSSSSSS.fvvvvvvvvvmSSSSSSSSSSSSSSSSSSSSSSSSSSSSSSSSSS&0vvvvvvvvvvvvvMSSSSSSSS",
"SSSSSSSSXfvvvvvvvvvvvvvvMSSSSSSSSSSSSSSSSSSSSSSSSSSSSSSSSSXuvvvvvvvvvSSSSSSSSSSSSSSSSSSSSSSSSSSSSSSSSSS*whvvvvvvvvvvvvvvSSSSSSSS",
"SSSSSSSSXfvvvvvvvvvvvvvvvnSSSSSSSSSSSSSSSSSSSSSSSSSSSSSSSSo8vvvvvvvvmSSSSSSSSSSSSSSSSSSSSSSSSSSSSSSSS6qavvvvvvvvvvvvvvvvSSSSSSSS",
"SSSSSSSS@vvvvvvvvvvvvvvvvvvMSSSSSSSSSSSSSSSSSSSSSSSSSSSSSS:%hvvvvvvvMSSSSSSSSSSSSSSSSSSSSSSSSSSSSSSetahvvvvvvvvvvvvvvvvvSSSSSSSS",
"SSSSSSS:&hvvvvvvvvvvvvvvvvvvvNSSSSSSSSSSSSSSSSSSSSSSSSSSSSSXgvvvvvvvSSSSSSSSSSSSSSSSSSSSSSSSSSSsssrfhvvvvvvvvvvvvvvvvvvvVSSSSSSS",
"SSSSSSSo=vvvvvvvvvvvvvvvvvvvvvvzhzzzzhzzhzzhzMSSSSSSSSSSSSS+0vvvvvvmSSSSSSSSSSSS>tzhhzzhzzhzfafggvvvvvvvvvvvvvvvvvvvvvvvMSSSSSSS",
"SSSSSSSo8gvvvvvvvvvvvvvvvvvvvvvvvvvvvvvvvvvvvMSSSSSSSSSSSSSo8gvvvvvMSSSSSSSSSSSSo0vvvvvvvvvvvvvvvvvvvvvvvvvvvvvvvvvvvvvvBSSSSSSS",
"SSSSSSSo9vvvvvvvvvvvvvvvvvvvvvvvvvvvvvvvvvvvvMSSSSSSSSSSSSSS%gvvvvvSSSSSSSSSSSSSowvvvvvvvvvvvvvvvvvvvvvvvvvvvvvvvvvvvvvvMSSSSSSS",
"SSSSSSSo9vvvvvvvvvvvvvvvvvvvvvvvvvvvvvvvvvvvvVSSSSSSSSSSSSSSXfvvvvmSSSSSSSSSSSSSo;vvvvvvvvvvvvvvvvvvvvvvvvvbvvvvvvvvvvvvMSSSSSSS",
"SSSSSSSo9gvvvvvvvvvvvvvvvvvvvvvvvvvvvvvvvvvvvVSSSSSSSSSSSSSS+rvvvvVSSSSSSSSSSSSSo-vvvvvvvvvvvvvvvvvvvvvvvvvvvvvvvvvvvvvvMSSSSSSS",
"SSSSSSSo0vvvvvvvvvvvvvvvvvvvvvvvvvvvvvvvvvvvvVSSSSSSSSSSSSSSo8vvvvSSSSSSSSSSSSSS:&vvvvvvvvvvvvvvvvvvvvvvvvvvvvvvvvvvvvvvBSSSSSSS",
"SSSSSSS 9vvvvvvvvvvvvvvvvvvvvvvvvvvvvvvvvvvvvVSSSSSSSSSSSSSSS@gvvMSSSSSSSSSSSSSSS@hvvvvvvvvvvvvvvvvvvvvvvvvvvvvvvvvvvvvvBSSSSSSS",
"SSSSSSSo8vvvvvvvvvbvvvvbvvvvvvvvvvvvvvvvvvvvvZSSSSSSSSSSSSSSSXfvvSSSSSSSSSSSSSSSS@gvvvvvvvvvvvvvvvvvvvvvvvvvvvvvvvvvvvvvBSSSSSSS",
"SSSSSSSo8gvvvvvvvvvvvvvvvvvvvvvvvvvvvvvvvvvvvZSSSSSSSSSSSSSSSo0vvSSSSSSSSSSSSSSSS.hvvvvvvvvvvvvvvvvvvvvvvvvvvvvvvvvvvvvvBSSSSSSS",
"SSSSSSSo-vvvvvvvvvvvvvvvvvvvvvvvvvvvvbvvvvvvvSSSSSSSSSSSSSSSSo;gMSSSSSSSSSSSSSSSSXavvvvvvvvvvvvvvvvvvvvvvvvvvvvvvvvvvbvvVSSSSSSS",
"SSSSSSS:&gvvvvvvbvvvvvvvvvvvvvvvvbvvvvvvvvvvvSSSSSSSSSSSSSSSSS@hSSSSSSSSSSSSSSSSSXabvvvvvvvvvvvvvvvvvvvvvvvvvvvvvvvvvvvvVSSSSSSS",
"SSSSSSSS@gvvvvvvvvvvvvvvvvvvvvvvvvvvvvvvvvvvvSSSSSSSSSSSSSSSSSohSSSSSSSSSSSSSSSSSOuvvvvvvvvvvvvvvvvvvvvbvvvvvvvvvvvvvvvvSSSSSSSS",
"SSSSSSSS.gvvvvvvvvvvvvvvvvvvvvvvvvvvvvvvvvvvvSSSSSSSSSSSSSSSSSoiSSSSSSSSSSSSSSSSSouvvvvvvvvvvvvvvvvvvvvvvvvvvvvvvvvvvvvvSSSSSSSS",
"SSSSSSSSXavvvvvvvvvvvvvvvvvvvvvvvvvvvvvvvvvvvSSSSSSSSSSSSSSSSSoSSSSSSS+SSSSSSSSSSowvvvvvvbvvvvvvvvvvvvvvvvvvvvvvvvvvvvvvSSSSSSSS",
"SSSSSSSSXuvvvvvvvvvvvvvvvvvvvvvvvvvvvvvvvvvvvSSSSSSSSSSSSSSSSSSSSSSSSS+SSSSSSSSSSo0vvvvvvvvvvvvvvvvvvbvvvvvvvvvvvvvvvvvmSSSSSSSS",
"SSSSSSSSo0vvvvvvvvvvvvvvvvvvvvvvvvvvvvvvvvvvvSSSSSSSSSS4SSSSSSSSSSSSSSXSSSSSSSSSS+8vvvvvvvvvvvvvvvvvvvvvvvvvvvvvvvvvvvvmSSSSSSSS",
"SSSSSSSSo=vvvvvvvvvvvvvvvvvvvvvvvvvvvvvbvvvvvSSSSSSSSSS#SSSSSSSSSSSSSS%MSSSSSSSSSo-vvvvvvvvvvvvvvvvvvvvvvvvvvvvvvvvvvvvBSSSSSSSS",
"SSSSSSSSS%hvvvvvvvvvvvvvvvvvvvvvvvvvvvvvvvvvvSSSSSSSSSSXSSSSSSSSSSSSS+9MSSSSSSSSS:&gvvvvvvvvvvvvbvvvvvvvvvvvvvvvvvvvvvvSSSSSSSSS",
"SSSSSSSSSXavvvvvvvvvvvvvvvvvvvvvvvvvvvvvvvvvvSSSSSSSSSS@MSSSSSSSSSSSS+uMSSSSSSSSSS%vvvvvvvvvvvvvvvvvvvvvvvvvvvvvvvvvvvvSSSSSSSSS",
"SSSSSSSSSOuvvbvvvvvvvvvvvvvvvvvvvvvvvvvvvvvvvSSSSSSSSSS%mSSSSSSSSSSSSOgBSSSSSSSSSS@hvvvvvvvvvvvbvvvvvvvvvvvvvvvvvvvvvvmSSSSSSSSS",
"SSSSSSSSSX8vvvvvvvvvvvvvvvvvvvvvvvvvvvvvvvvvvSSSSSSSSS+-vSSSSSSSSSSS+=gMSSSSSSSSSS.vvvvvvvvvvvvvvvvvvvvvvvvvvvvvvvvvvvBSSSSSSSSS",
"SSSSSSSSSS@fvvvvvvvvvvvvvvvvvvvvvvvvvvvvvvvvbSSSSSSSSSo8gSSSSSSSSSSS+9vMSSSSSSSSSS.fvvvvvvvvvvvvvvvvvvvvvvvvvvvvvvvbvvSSSSSSSSSS",
"SSSSSSSSSSoavvvvvvvvvvvvvvvvvvvvbvvvvvvvvvvvbSSSSSSSSSo0vMSSSSSSSSSSOavMSSSSSSSSSSXavvvvvvvvvvvvvbvvvvvvvvvvvbvvvvvvvvSSSSSSSSSS",
"SSSSSSSSSSo8hvvvvvvvvvvvvbvvvvvvvvvvvvvvvvvvBSSSSSSSSS+0vmSSSSSSSSSS@fvMSSSSSSSSSS+avvvvvvvvvvvvvvvvvvvvvvvvvvvvvvvvvBSSSSSSSSSS",
"SSSSSSSSSSS@fvvvbvvvvvvvvvvvvbvvvvvvvvvvvvvvBSSSSSSSSS+avvSSSSSSSSS+-vvmSSSSSSSSSSOuvvvvvvvvvvvvvvvvvvvvvvvvvvvvvvvvvSSSSSSSSSSS",
"SSSSSSSSSSS+uvvvvvvvvvvvvvvvvvvvvvvvvvvvvvvvbSSSSSSSSSXavvMSSSSSSSS+0vvmSSSSSSSSSS+rvvvvbvvvvvvvvvvvvvvvvvvvvvvvvvvvmSSSSSSSSSSS",
"SSSSSSSSSSS+=vvvvvvvvvvvvvvvvvvvvvvvvvvvvvvvBSSSSSSSSSXfvvMSSSSSSSSXfvvbSSSSSSSSSS 9hvvvvvvvvvvvvvvvvvvvvvvvvvvvvvvvBSSSSSSSSSSS",
"SSSSSSSSSSSS.avvvvvvvvvvvvvvvvvvvvvvvvvvvvvvBSSSSSSSSSXgvvvSSSSSSSS%hvvvSSSSSSSSSSo8vvvvvvvvvvvvvvvvvvvvvvvvvvvvvvvvSSSSSSSSSSSS",
"SSSSSSSSSSSS+8gvvvvvvvvvvvvvvvvvvvvvvvvvvvvvmSSSSSSSSS%gvvvSSSSSSSX8vvvvSSSSSSSSSS+;vvvvvvvvvvvvvvvvvvvvbvvvvvvvvvvmSSSSSSSSSSSS",
"SSSSSSSSSSSSS@fvvvvvvvvvvvvvvvvvvvvvvvvvvvvvBSSSSSSSS:&gvvvMSSSSSS+avvvvSSSSSSSSSS+-vvvvvvvvvvvvvvvvvvvvvvvvvvvvvvvSSSSSSSSSSSSS",
"SSSSSSSSSSSSS+9gvvvvvvvvvvvvvvvvvvvvvvvvvvvvBSSSSSSSS+-vvvvvSSSSSl;gvvvvSSSSSSSSSS79vvvvvvvvvvvvvvvvvvvvvvvvvvvvvvMSSSSSSSSSSSSS",
"SSSSSSSSSSSSSS@avvvvvvvvvvvvvvvvvvvvvvvvvvvvMSSSSSSSS6rvvvvvvvvvvggvvvvvSSSSSSpisuagvvvvvvvvvvvvvvvvvvvvvvvvvvvvvvSSSSSSSSSSSSSS",
"SSSSSSSSSSSSSS+8gvvvvvvvvvvvvvvvvvvvvvvvvvvvvvghfgggfggvvvvvvvvvvvvvvvvvASpisafggvvbvvvvvvvvvvvvvvvvvvvvvvvvvvvvvmSSSSSSSSSSSSSS",
"SSSSSSSSSSSSSSS@avvvvvvvvbvvvvbvvvvvvvvvvvvvvvvvvvvvvvvvvvvvvvvvvvvvvvvvvfggvvvvvvvvvvvvvvvvvvvvvvvvvvvvvvvvvvvvhSSSSSSSSSSSSSSS",
"SSSSSSSSSSSSSSS:-gvvvvvvvvvvvvvvvvvvvvvvvvvvvvvvvvvvvvvvvvvvvvvvvvvvvvvvvvvvvvvvvvvvvvvvvvvvvvvvvvvvvvvvvvvvvvvvMSSSSSSSSSSSSSSS",
"SSSSSSSSSSSSSSSS@rvvvvvvvvvvvvvvvvvvvvvvvvvvvvvvvvvvvvvvvvvvbvvvvvvvvvvvvvvvvvvvvvvvvvvvvvvvvvvvvvvvvvvvvvvvvvvmSSSSSSSSSSSSSSSS",
"SSSSSSSSSSSSSSSSS@fvvvvvvvvvvvvvvvvvvvvvvvvvvvvvvvvvvvvvvvvvvvvvvvvvvvvvvvvvvvvvvvvvvvvvvvvvvvvvvvvvvvvvvvvvvvvSSSSSSSSSSSSSSSSS",
"SSSSSSSSSSSSSSSSS>;gvvvvvvvvvvvvvvvvvvvvvvvvvvvvvvvvvvvvvvvvvvvvvvvvvvvvvvvvvvvvvvvvvbvvvvvvvvvvvvvvvvvvvvvvvvMSSSSSSSSSSSSSSSSS",
"SSSSSSSSSSSSSSSSSS+0gvvvvvvvvvvvvvvvvvvvvvvvvvvvvvvvvvbvvvvvvvvvvvvvvvvvvvvvvvvvvvvvvvvvvvvvvvvvvvvvvvvvvvvvgmSSSSSSSSSSSSSSSSSS",
"SSSSSSSSSSSSSSSSSSS#avvvvvvvvvvvvvvvvvvvvvvbvvvvvvvvvvvvvvvvvbvvvvvvvvvvvvvvvvvvvvvvvvvvvvvvvvvvvvvvbvvvvvvvvSSSSSSSSSSSSSSSSSSS",
"SSSSSSSSSSSSSSSSSSS,%fgvvvvvvvvvvvvvvvvvvvvvvvvbvvvvvvvvvvvvvvvvvvvvvvvvvvvvvvvvvvvvvvvvvvvvvvvvvvvvvvvvvvvvZSSSSSSSSSSSSSSSSSSS",
"SSSSSSSSSSSSSSSSSSSS<-hvvvvvvvvvvvvvvvvvvvvvvvvvvvvvvvvvvvvvvvvvvvvbvvvvvvvvvvvvvvvvvvvvvvvvbvvvvvvvvvvvvvvMSSSSSSSSSSSSSSSSSSSS",
"SSSSSSSSSSSSSSSSSSSSS#8gvvvvvvvvvvvvvvvvvvvvvvvvvvvvvvvvvvvvvvvvvvvvvvvvvvvvvvvvvvvvvvvvvbvvvvvvvvvvvvvvvgmSSSSSSSSSSSSSSSSSSSSS",
"SSSSSSSSSSSSSSSSSSSSSS#wvvvvvvvvvvvvvvvvvvvvvvvvvvvvvvvvvvvvvvvvvvvvvvvvvvvvvvvvvvvvvvvvvvvvvvvvvvvvvvvvvmSSSSSSSSSSSSSSSSSSSSSS",
"SSSSSSSSSSSSSSSSSSSSSSS#0hvvvvvvvvvvvvvvvvvvvvvvbvvvvvvvvvvvvvvvvvvvvvvvvvvvvvvvvvvvvvvvvvvvvvvvvvvvvvvvmSSSSSSSSSSSSSSSSSSSSSSS",
"SSSSSSSSSSSSSSSSSSSSSSSS#0gvvvvvvvvvvvvvvvvvvvvvvvvvvvvvvvvvvvvvvvvvvvvvvvvvvvvvvbvvvvvvvvvvvvvvvvvvvvvnSSSSSSSSSSSSSSSSSSSSSSSS",
"SSSSSSSSSSSSSSSSSSSSSSSSS#9gvvvvvvvvvvvvvvvvvvvvvvvvvvvvvvvvvvvvvvvvvvvvvvvvvvvvvvvvvvvvvvvvvvvvvvvvvvxSSSSSSSSSSSSSSSSSSSSSSSSS",
"SSSSSSSSSSSSSSSSSSSSSSSSSS$8hvvvvvvvvvvvvvvvvvvvvvvvvvvvvvvvvvvvbvvvvvvvvvvvvvvvvvvvvvvvvvvvvvvvvvvvhmSSSSSSSSSSSSSSSSSSSSSSSSSS",
"SSSSSSSSSSSSSSSSSSSSSSSSSSS<-fvvvvvvvvvvvvvvvvvvvvvvvvvvvvvvvvvvvvvvvvvvvvvvvvvvvvvvvvvvvvvvvvvvvvvvmSSSSSSSSSSSSSSSSSSSSSSSSSSS",
"SSSSSSSSSSSSSSSSSSSSSSSSSSSS3=avvvvvvvvvvvvvvvvvvvvvvvvvvvvvvvvvvvvvvvvvvvvvvvvvvvvvvvvvvvvvvvvvvvvNSSSSSSSSSSSSSSSSSSSSSSSSSSSS",
"SSSSSSSSSSSSSSSSSSSSSSSSSSSSSS&rgvvvvvvvvvvvvvvvvvvvvvvvvvvvvvvvvvvvvvvvvvvvvvvvvvvvvvvvvvvvvvvvvvSSSSSSSSSSSSSSSSSSSSSSSSSSSSSS",
"SSSSSSSSSSSSSSSSSSSSSSSSSSSSSSS<8fvbvvvvvvvvvvvvvvvvvvvvvvvvvvvvvvvvvvvvvvvvvvvvvvvvvvbvvvvvvvhvbSSSSSSSSSSSSSSSSSSSSSSSSSSSSSSS",
"SSSSSSSSSSSSSSSSSSSSSSSSSSSSSSSS<=agvvvvvvvvvvvvvvvvvbvvvvvvvvvvvvvvvvvvvvvbvvvvvvvvvvvvvvvvvvhMSSSSSSSSSSSSSSSSSSSSSSSSSSSSSSSS",
"SSSSSSSSSSSSSSSSSSSSSSSSSSSSSSSSSS<8avvvvvvvvvvvvvvvvvvvvvvvvvvvvvvvvvvvvvvvvvvvvvvvvvvvvvvvvnSSSSSSSSSSSSSSSSSSSSSSSSSSSSSSSSSS",
"SSSSSSSSSSSSSSSSSSSSSSSSSSSSSSSSSSSS*0gvvvvvvvvvvvvvvvvvvvvvvvvvvvvvvvvvvvvvvvvvvvvvvvvvvvvzSSSSSSSSSSSSSSSSSSSSSSSSSSSSSSSSSSSS",
"SSSSSSSSSSSSSSSSSSSSSSSSSSSSSSSSSSSSS3;rfvhvvvvvvvvvvvvvvvvvvvvvvvvvvvvvvvvvvvvvvvvvvvvvhhcSSSSSSSSSSSSSSSSSSSSSSSSSSSSSSSSSSSSS",
"SSSSSSSSSSSSSSSSSSSSSSSSSSSSSSSSSSSSSSS450fvvvvvvvvvvvvvvvvvvvvvvvvvvvvvvvvvvvvvvvvvvvgncSSSSSSSSSSSSSSSSSSSSSSSSSSSSSSSSSSSSSSS",
"SSSSSSSSSSSSSSSSSSSSSSSSSSSSSSSSSSSSSSSSSS59agvvvvvvvvvvvvvvvvvvvvvvvvvvvvvvvvvvvvvvhzSSSSSSSSSSSSSSSSSSSSSSSSSSSSSSSSSSSSSSSSSS",
"SSSSSSSSSSSSSSSSSSSSSSSSSSSSSSSSSSSSSSSSSSSS5qrahvvvvvvvvvvvvvvvvvvvvvvvvvvvvvvvvghzSSSSSSSSSSSSSSSSSSSSSSSSSSSSSSSSSSSSSSSSSSSS",
"SSSSSSSSSSSSSSSSSSSSSSSSSSSSSSSSSSSSSSSSSSSSSSSet0aghvvvvbvvvvvvvvvvvvvvvvhhhvvvzSSSSSSSSSSSSSSSSSSSSSSSSSSSSSSSSSSSSSSSSSSSSSSS",
"SSSSSSSSSSSSSSSSSSSSSSSSSSSSSSSSSSSSSSSSSSSSSSSSSSeqt0aahghvvvvvvvvvvvvvghfhzkSSSSSSSSSSSSSSSSSSSSSSSSSSSSSSSSSSSSSSSSSSSSSSSSSS",
"SSSSSSSSSSSSSSSSSSSSSSSSSSSSSSSSSSSSSSSSSSSSSSSSSSSSSSSeetisdsaraadhzkjjkSSSSSSSSSSSSSSSSSSSSSSSSSSSSSSSSSSSSSSSSSSSSSSSSSSSSSSS",
"SSSSSSSSSSSSSSSSSSSSSSSSSSSSSSSSSSSSSSSSSSSSSSSSSSSSSSSSSSSSSSSSSSSSSSSSSSSSSSSSSSSSSSSSSSSSSSSSSSSSSSSSSSSSSSSSSSSSSSSSSSSSSSSS",
"SSSSSSSSSSSSSSSSSSSSSSSSSSSSSSSSSSSSSSSSSSSSSSSSSSSSSSSSSSSSSSSSSSSSSSSSSSSSSSSSSSSSSSSSSSSSSSSSSSSSSSSSSSSSSSSSSSSSSSSSSSSSSSSS",
"SSSSSSSSSSSSSSSSSSSSSSSSSSSSSSSSSSSSSSSSSSSSSSSSSSSSSSSSSSSSSSSSSSSSSSSSSSSSSSSSSSSSSSSSSSSSSSSSSSSSSSSSSSSSSSSSSSSSSSSSSSSSSSSS",
"SSSSSSSSSSSSSSSSSSSSSSSSSSSSSSSSSSSSSSSSSSSSSSSSSSSSSSSSSSSSSSSSSSSSSSSSSSSSSSSSSSSSSSSSSSSSSSSSSSSSSSSSSSSSSSSSSSSSSSSSSSSSSSSS",
"SSSSSSSSSSSSSSSSSSSSSSSSSSSSSSSSSSSSSSSSSSSSSSSSSSSSSSSSSSSSSSSSSSSSSSSSSSSSSSSSSSSSSSSSSSSSSSSSSSSSSSSSSSSSSSSSSSSSSSSSSSSSSSSS",
"SSSSSSSSSSSSSSSSSSSSSSSSSSSSSSSSSSSSSSSSSSSSSSSSSSSSSSSSSSSSSSSSSSSSSSSSSSSSSSSSSSSSSSSSSSSSSSSSSSSSSSSSSSSSSSSSSSSSSSSSSSSSSSSS",
"SSSSSSSSSSSSSSSSSSSSSSSSSSSSSSSSSSSSSSSSSSSSSSSSSSSSSSSSSSSSSSSSSSSSSSSSSSSSSSSSSSSSSSSSSSSSSSSSSSSSSSSSSSSSSSSSSSSSSSSSSSSSSSSS"
};
