<?xml version="1.0" encoding="UTF-8"?>
<svg width="1033px" height="1033px" viewBox="0 0 1033 1033" version="1.1" xmlns="http://www.w3.org/2000/svg" xmlns:xlink="http://www.w3.org/1999/xlink">
    <!-- Generator: Sketch 61 (89581) - https://sketch.com -->
    <title>Combined Shape</title>
    <desc>Created with Sketch.</desc>
    <defs>
        <path d="M578.5,63 C861.545934,63 1091,292.454066 1091,575.5 C1091,858.545934 861.545934,1088 578.5,1088 C295.454066,1088 66,858.545934 66,575.5 C66,292.454066 295.454066,63 578.5,63 Z M200.086694,393.682479 C189.304435,427.723956 189.304435,453.871723 200.086694,472.125778 C210.868952,490.379833 235.92299,509.648273 275.248809,529.931097 L413.441174,529.931097 L403.93557,815.45478 L481.884439,815.45478 L498.546603,653.65681 L542.543761,804.931454 L594.375929,804.931454 L642.954452,627.217134 L653.999336,826 L746.027879,804.931454 L723.624418,529.931097 L829.900424,529.931097 C908.294299,523.178264 952.529765,496.028276 962.606824,448.481133 C972.683882,400.93399 950.936987,364.226408 897.366137,338.358388 C905.950118,375.241115 905.950118,401.57619 897.366137,417.363612 C888.782156,433.151035 866.293585,438.339721 829.900424,432.92967 L699.171015,432.92967 C677.154891,443.699006 662.097664,452.806573 653.999336,460.252371 C645.901008,467.69817 636.820955,480.782999 626.759179,499.50686 L567.30356,663.902823 L522.066224,489.043467 C516.318565,468.829146 508.478692,455.308368 498.546603,448.481133 C488.614514,441.653898 469.243412,436.470077 440.433295,432.92967 L327.161223,432.92967 C300.368032,435.894189 283.063894,435.894189 275.248809,432.92967 C267.433723,429.965152 262.010982,421.3441 258.980584,407.066515 C281.512926,361.261097 286.935668,334.694928 275.248809,327.368007 C263.56195,320.041086 238.507911,342.14591 200.086694,393.682479 Z" id="path-1"></path>
        <filter x="-0.7%" y="-0.5%" width="101.4%" height="101.4%" filterUnits="objectBoundingBox" id="filter-2">
            <feOffset dx="0" dy="2" in="SourceAlpha" result="shadowOffsetOuter1"></feOffset>
            <feGaussianBlur stdDeviation="2" in="shadowOffsetOuter1" result="shadowBlurOuter1"></feGaussianBlur>
            <feComposite in="shadowBlurOuter1" in2="SourceAlpha" operator="out" result="shadowBlurOuter1"></feComposite>
            <feColorMatrix values="0 0 0 0 0   0 0 0 0 0   0 0 0 0 0  0 0 0 0.5 0" type="matrix" in="shadowBlurOuter1"></feColorMatrix>
        </filter>
        <filter x="-1.3%" y="-1.1%" width="102.5%" height="102.5%" filterUnits="objectBoundingBox" id="filter-3">
            <feGaussianBlur stdDeviation="4.5" in="SourceAlpha" result="shadowBlurInner1"></feGaussianBlur>
            <feOffset dx="9" dy="1" in="shadowBlurInner1" result="shadowOffsetInner1"></feOffset>
            <feComposite in="shadowOffsetInner1" in2="SourceAlpha" operator="arithmetic" k2="-1" k3="1" result="shadowInnerInner1"></feComposite>
            <feColorMatrix values="0 0 0 0 0   0 0 0 0 0   0 0 0 0 0  0 0 0 1 0" type="matrix" in="shadowInnerInner1"></feColorMatrix>
        </filter>
    </defs>
    <g id="Page-1" stroke="none" stroke-width="1" fill="none" fill-rule="evenodd">
        <g id="Artboard" transform="translate(-62.000000, -61.000000)">
            <g id="Combined-Shape">
                <use fill="black" fill-opacity="1" filter="url(#filter-2)" xlink:href="#path-1"></use>
                <use fill="#2B622B" fill-rule="evenodd" xlink:href="#path-1"></use>
                <use fill="black" fill-opacity="1" filter="url(#filter-3)" xlink:href="#path-1"></use>
                <path stroke="#979797" stroke-width="1" d="M578.5,63.5 C295.730208,63.5 66.5,292.730208 66.5,575.5 C66.5,858.269792 295.730208,1087.5 578.5,1087.5 C861.269792,1087.5 1090.5,858.269792 1090.5,575.5 C1090.5,292.730208 861.269792,63.5 578.5,63.5 Z M481.433286,814.95478 L481.884439,814.95478 L481.38707,815.40356 L481.433286,814.95478 Z M593.994261,804.431454 L594.375929,804.431454 L593.893623,804.799615 L593.994261,804.431454 Z M259.505722,407.131677 C262.51103,421.158629 267.832236,429.581556 275.426145,432.462175 C283.139927,435.388266 300.393986,435.388266 327.161223,432.42967 L440.49428,432.433403 C469.37903,435.982981 488.813061,441.183642 498.829837,448.069091 C508.875128,454.97414 516.77063,468.590855 522.550288,488.918236 L567.38294,662.213335 L626.318744,499.270181 C636.404659,480.501401 645.513209,467.375505 653.660922,459.8843 C661.803445,452.397868 676.895154,443.269444 698.951313,432.480526 L699.055279,432.42967 L699.171015,432.42967 L829.973944,432.435105 C866.181855,437.817617 888.472015,432.674709 896.92687,417.124773 C905.437827,401.471654 905.437827,375.24572 896.879152,338.471728 L896.64219,337.453571 L897.583554,337.908133 C951.348727,363.869987 973.224443,400.795011 963.095959,448.584799 C952.964422,496.388992 908.532423,523.659603 829.900424,530.431097 L724.166808,530.431097 L746.561373,805.322254 L653.532997,826.619697 L642.625837,630.315555 L594.757596,805.431454 L542.168464,805.431454 L498.781648,656.255336 L482.335593,815.95478 L403.418647,815.95478 L412.924251,530.431097 L275.127462,530.431097 L275.019615,530.375473 C235.617301,510.053195 210.497583,490.734243 199.656187,472.380068 C188.788963,453.98217 188.788963,427.695512 199.610032,393.531502 L199.685832,393.383631 C238.316657,341.565904 263.456856,319.385061 275.514398,326.944377 C287.532717,334.479102 282.101312,361.162496 259.505722,407.131677 Z" stroke-linejoin="square"></path>
            </g>
        </g>
    </g>
</svg>